Coordinates
version=1
nRows=6
nColumns=36
inDegrees=yes

Units are S.I. units (second, meters, Newtons, ...)
If the header above contains a line with 'inDegrees', this indicates whether rotational values are in degrees (yes) or radians (no).

endheader
time	pelvis_tilt	pelvis_list	pelvis_rotation	pelvis_tx	pelvis_ty	pelvis_tz	hip_flexion_r	hip_adduction_r	hip_rotation_r	knee_angle_r	knee_angle_r_beta	ankle_angle_r	subtalar_angle_r	mtp_angle_r	hip_flexion_l	hip_adduction_l	hip_rotation_l	knee_angle_l	knee_angle_l_beta	ankle_angle_l	subtalar_angle_l	mtp_angle_l	lumbar_extension	lumbar_bending	lumbar_rotation	arm_flex_r	arm_add_r	arm_rot_r	elbow_flex_r	pro_sup_r	arm_flex_l	arm_add_l	arm_rot_l	elbow_flex_l	pro_sup_l
     15.15000000	     -9.21879181	      0.45602919	     -2.05916665	      0.87267022	      0.79533258	      0.70532819	     33.51325451	     -0.03812611	      4.53369807	      5.52692273	      0.09646300	      5.54474070	     -7.13023824	     -7.49999987	      1.64212019	      3.26109688	     -0.66350374	     13.87693927	      0.24219828	     20.16095533	     -0.13331062	     -7.49999987	      7.31513345	      1.77198576	     -5.19729978	     -0.45184918	    -11.83473438	      3.39469740	     14.27089741	     95.49218311	      6.26814998	    -14.12113333	      6.92358595	     17.98016237	     92.96425610
     15.16666670	     -9.32147922	      0.55399885	     -1.88414211	      0.87320953	      0.79136290	      0.70552891	     33.40909010	     -0.10840176	      4.89607007	      2.96098077	      0.05167886	      5.89670828	     -5.96410279	     -7.49999987	      0.37521941	      3.29503923	     -0.62770023	     13.88324437	      0.24230833	     20.13599460	     -0.01727409	     -7.49999987	      7.73994777	      1.54603260	     -5.35812896	     -0.68805120	    -11.83623320	      3.47103922	     14.24116830	     95.70472312	      6.22380062	    -14.27723207	      7.02657040	     18.18058462	     93.15855610
     15.18333330	     -9.42680057	      0.58021215	     -1.78724670	      0.87469614	      0.78779801	      0.70623125	     33.48110062	     -0.00715332	      5.22479618	      1.92719158	      0.03363584	      6.16564803	     -5.41952109	     -7.49999987	     -0.64985677	      3.21319416	     -0.55206654	     14.27366890	      0.24912252	     20.30922449	     -0.01559344	     -7.49999987	      8.11131925	      1.41415810	     -5.48280389	     -0.93667071	    -11.87131355	      3.49498677	     14.21322242	     95.75107315	      6.13831662	    -14.34962469	      7.06308710	     18.24927899	     93.20330636
     15.20000000	     -9.07366394	      0.18912961	     -1.62748840	      0.87685876	      0.78704479	      0.70700538	     32.85330535	      0.45857169	      4.25709814	      1.81821115	      0.03173377	      6.26162882	     -4.06240098	     -7.49999987	     -1.98588301	      2.63343678	     -0.63936281	     14.94228511	      0.26079207	     20.59908357	      0.43450675	     -7.49999987	      7.82898266	      1.84346372	     -5.84110605	     -0.96005638	    -12.15884130	      3.65824076	     14.18878988	     96.22172948	      5.99255599	    -14.26486214	      7.32645378	     18.33103368	     93.64224097
     15.21666670	     -9.04646546	      0.00218112	     -1.63883236	      0.87844776	      0.78783792	      0.70790710	     32.51879053	      0.91104120	      3.87997827	      2.61906276	      0.04571127	      5.62921661	     -4.08613952	     -7.49999987	     -2.79905975	      2.23898295	     -0.77830106	     15.78025622	      0.27541743	     20.29209675	      0.36111789	     -7.49999987	      8.11542140	      2.01293925	     -5.91326289	     -1.31140391	    -12.38136014	      3.65445885	     14.03545505	     96.26209637	      5.65585009	    -14.10886409	      7.36097469	     18.24298845	     93.68222011
     15.23333330	     -8.94002639	     -0.50060322	     -1.58902499	      0.87863369	      0.78920100	      0.70768757	     32.12544857	      1.59830204	      2.82865013	      4.15228240	      0.07247100	      4.56158259	     -4.27709194	     -7.49999987	     -3.27343440	      1.46401668	     -1.03986499	     17.22362741	      0.30060901	     19.78856903	      0.12057193	     -7.49999987	      8.04376276	      2.70949498	     -6.10790504	     -1.47387188	    -12.93293140	      3.62239698	     14.10521421	     96.08669197	      5.52708249	    -13.76387792	      7.39122380	     18.32786412	     93.53465822
